<svg width="24" height="25" viewBox="0 0 24 25" fill="none" xmlns="http://www.w3.org/2000/svg">
<circle cx="12" cy="12.5" r="6" fill="white"/>
<path fill-rule="evenodd" clip-rule="evenodd" d="M22 12.5C22 18.0228 17.5228 22.5 12 22.5C6.47715 22.5 2 18.0228 2 12.5C2 6.97715 6.47715 2.5 12 2.5C17.5228 2.5 22 6.97715 22 12.5ZM8.96963 9.46965C9.26252 9.17676 9.73739 9.17676 10.0303 9.46965L12 11.4393L13.9696 9.46967C14.2625 9.17678 14.7374 9.17678 15.0303 9.46967C15.3232 9.76256 15.3232 10.2374 15.0303 10.5303L13.0606 12.5L15.0303 14.4696C15.3232 14.7625 15.3232 15.2374 15.0303 15.5303C14.7374 15.8232 14.2625 15.8232 13.9696 15.5303L12 13.5607L10.0303 15.5303C9.73742 15.8232 9.26254 15.8232 8.96965 15.5303C8.67676 15.2374 8.67676 14.7625 8.96965 14.4697L10.9393 12.5L8.96963 10.5303C8.67673 10.2374 8.67673 9.76254 8.96963 9.46965Z" fill="#E92323"/>
</svg>
